<svg width="162" height="136" viewBox="0 0 162 136" fill="none" xmlns="http://www.w3.org/2000/svg">
<path d="M75.7544 134.801C75.7544 123.171 73.795 111.654 69.9879 100.908C66.1809 90.1632 60.6009 80.3998 53.5665 72.1757C46.532 63.9516 38.1809 57.4279 28.99 52.977C19.799 48.5262 9.94821 46.2354 0 46.2354V117.801C0 127.19 7.61116 134.801 17 134.801H75.7544Z" fill="white" fill-opacity="0.06"/>
<path d="M115.512 135.43C115.512 117.695 112.524 100.134 106.719 83.7492C100.914 67.3645 92.4056 52.477 81.6793 39.9367C70.9531 27.3964 58.2191 17.4489 44.2045 10.6622C30.19 3.87542 15.1693 0.382323 0 0.382324V118.43C0 127.818 7.61116 135.43 17 135.43H115.512Z" fill="white" fill-opacity="0.06"/>
</svg>
