<svg width="215" height="133" viewBox="0 0 215 133" fill="none" xmlns="http://www.w3.org/2000/svg">
<path d="M140.237 132.553C140.237 121.213 142.148 109.985 145.859 99.508C149.571 89.0313 155.012 79.512 161.87 71.4935C168.729 63.475 176.871 57.1144 185.832 52.7748C194.794 48.4352 204.398 46.2017 214.098 46.2017V115.553C214.098 124.942 206.486 132.553 197.098 132.553H140.237Z" fill="white" fill-opacity="0.06"/>
<path d="M101.276 132.561C101.276 115.27 104.189 98.1479 109.849 82.1728C115.509 66.1977 123.805 51.6824 134.263 39.4557C144.721 27.2289 157.137 17.5301 170.801 10.913C184.465 4.2959 199.11 0.890136 213.9 0.890137V115.561C213.9 124.95 206.289 132.561 196.9 132.561H101.276Z" fill="white" fill-opacity="0.06"/>
</svg>
